<svg width="905" height="86" viewBox="0 0 905 86" fill="none" xmlns="http://www.w3.org/2000/svg">
<path d="M36 7.00195C55.8495 7.00211 71.9999 23.1512 72 43C72 62.8488 55.8525 78.9979 36 78.998C16.1474 78.998 1.18528e-06 62.8489 0 43C5.01249e-05 23.1512 16.1475 7.00199 36 7.00195ZM33.2207 60.626C33.7048 64.1256 34.2988 66.9547 34.9014 69.0596C35.2308 70.2104 35.5587 71.1316 35.8662 71.8213C35.9115 71.9228 35.9561 72.0178 35.999 72.1064C36.0421 72.0175 36.0864 71.9222 36.1318 71.8203C36.4394 71.1301 36.768 70.2085 37.0977 69.0576C37.7006 66.9527 38.2951 64.1242 38.7793 60.626H33.2207ZM44.8604 60.6289C44.4168 64.1882 43.7801 67.7759 42.8623 70.8105C46.0731 68.7188 48.8869 65.1854 50.9541 60.6289H44.8604ZM21.042 60.626C23.1072 65.1815 25.9222 68.7136 29.1338 70.8066C28.2162 67.7727 27.5793 64.1867 27.1357 60.626H21.042ZM11.7861 60.626C13.3736 62.8015 15.2474 64.7547 17.3516 66.4316C16.3001 64.6391 15.3681 62.6957 14.5742 60.626H11.7861ZM57.4219 60.6289C56.6284 62.6962 55.6974 64.6394 54.6465 66.4316C56.7491 64.7554 58.6222 62.8031 60.21 60.6289H57.4219ZM32.1455 46.0166C32.2056 49.1151 32.3525 51.9819 32.5645 54.5986H39.4346C39.6469 51.9817 39.7961 49.1165 39.8545 46.0166H32.1455ZM45.873 46.0166C45.8236 48.1864 45.7104 51.2299 45.457 54.5986H53.0762C53.7806 51.914 54.2478 49.0333 54.4365 46.0166H45.873ZM6.18652 46.0137C6.49076 49.0275 7.24055 51.9102 8.37207 54.5957H12.7402C12.1065 51.8668 11.6893 48.9909 11.5205 46.0137H6.18652ZM17.5596 46.0137C17.7483 49.0285 18.2156 51.911 18.9199 54.5957H26.54C26.2867 51.2269 26.1735 48.1849 26.124 46.0137H17.5596ZM60.4727 46.0137C60.3038 48.9909 59.8877 51.8653 59.2539 54.5957H63.6221C64.7559 51.9102 65.5064 49.0294 65.8086 46.0137H60.4727ZM8.37207 31.4014C7.24052 34.087 6.49065 36.9698 6.18848 39.9834H11.5205C11.6893 37.0062 12.1064 34.1317 12.7402 31.4014H8.37207ZM18.9199 31.4014C18.2156 34.086 17.7483 36.9686 17.5596 39.9834H26.124C26.1735 37.8136 26.2867 34.77 26.54 31.4014H18.9199ZM32.5645 31.4014C32.3521 34.0183 32.2029 36.8835 32.1445 39.9834H39.8545C39.7944 36.8831 39.6465 34.0179 39.4346 31.4014H32.5645ZM45.457 31.4014C45.7104 34.77 45.8236 37.8136 45.873 39.9834H54.4365C54.2478 36.9686 53.7805 34.086 53.0762 31.4014H45.457ZM59.2568 31.4014C59.8907 34.1317 60.3068 37.0062 60.4756 39.9834H65.8086C65.5064 36.9698 64.7566 34.087 63.625 31.4014H59.2568ZM17.3506 19.5674C15.2482 21.2438 13.3752 23.1965 11.7871 25.3711H14.5742C15.3678 23.3034 16.2994 21.36 17.3506 19.5674ZM29.1338 15.1895C25.9231 17.2813 23.1091 20.8147 21.042 25.3711H27.1357C27.5793 21.8118 28.216 18.2241 29.1338 15.1895ZM35.8643 14.1768C35.5567 14.867 35.2291 15.7886 34.8994 16.9395C34.2965 19.0443 33.702 21.8729 33.2178 25.3711H38.7764C38.2922 21.8715 37.6983 19.0424 37.0957 16.9375C36.7662 15.7867 36.4384 14.8655 36.1309 14.1758C36.0856 14.0742 36.041 13.9793 35.998 13.8906C35.955 13.9797 35.9097 14.0748 35.8643 14.1768ZM42.8652 15.1904C43.7829 18.2243 44.4198 21.8103 44.8633 25.3711H50.958C48.8928 20.8155 46.0769 17.2835 42.8652 15.1904ZM54.6455 19.5654C55.697 21.3579 56.629 23.3014 57.4229 25.3711H60.2119C58.6232 23.1957 56.7496 21.2423 54.6455 19.5654Z" fill="#000000"/>
<path d="M102.912 65V28.136H89.304V18.2H128.76V28.136H115.152V65H102.912ZM151.678 65.864C137.71 65.864 131.59 55.136 131.59 41.6C131.59 28.064 137.71 17.336 151.678 17.336C165.646 17.336 171.766 28.064 171.766 41.6C171.766 55.136 165.646 65.864 151.678 65.864ZM151.678 55.856C157.006 55.856 159.526 50.096 159.526 41.6C159.526 33.104 157.006 27.344 151.678 27.344C146.35 27.344 143.83 33.104 143.83 41.6C143.83 50.096 146.35 55.856 151.678 55.856ZM176.036 49.016V18.128H188.564V49.016C188.564 53.336 190.436 55.856 194.324 55.856C198.212 55.856 200.084 53.336 200.084 49.016V18.128H212.612V49.016C212.612 58.88 206.564 65.864 194.324 65.864C182.084 65.864 176.036 58.88 176.036 49.016ZM257.058 32.24C257.058 38.216 252.882 43.256 247.05 45.128L256.266 65H242.802L234.234 45.848H230.562V65H218.322V18.2H241.506C250.794 18.2 257.058 24.464 257.058 32.24ZM230.562 27.272V36.92H239.418C242.442 36.92 244.818 34.688 244.818 32.096C244.818 29.144 242.586 27.272 239.274 27.272H230.562ZM261.112 65V18.2H277.384C292.216 18.2 299.416 27.848 299.416 41.6C299.416 55.352 292.216 65 277.384 65H261.112ZM273.352 55.208H276.232C282.712 55.208 287.176 50.888 287.176 41.6C287.176 32.312 282.712 28.064 276.232 28.064H273.352V55.208ZM338.966 27.92H328.382V55.28H338.966V65H305.558V55.28H316.142V27.92H305.558V18.2H338.966V27.92ZM372.684 18.2H385.428L372.036 65H357.78L344.388 18.2H357.132L364.908 50.96L372.684 18.2ZM424.258 27.92H413.674V55.28H424.258V65H390.85V55.28H401.434V27.92H390.85V18.2H424.258V27.92ZM431.696 65V18.2H447.968C462.8 18.2 470 27.848 470 41.6C470 55.352 462.8 65 447.968 65H431.696ZM443.936 55.208H446.816C453.296 55.208 457.76 50.888 457.76 41.6C457.76 32.312 453.296 28.064 446.816 28.064H443.936V55.208ZM475.853 65V18.2H511.277L509.261 28.136H488.093V34.904H508.253V44.84H488.093V55.064H509.405L511.421 65H475.853ZM524.547 46.712C526.851 52.472 530.739 56.504 536.715 56.504C540.891 56.504 543.339 54.56 543.339 51.824C543.339 49.52 542.259 48.512 537.939 47.072L531.603 44.912C523.755 42.248 518.499 38.576 518.499 31.52C518.499 23.024 525.555 17.336 535.779 17.336C544.419 17.336 550.539 20.72 553.779 25.904L545.931 33.176C543.987 29.792 540.747 26.696 535.779 26.696C532.251 26.696 530.307 27.704 530.307 29.936C530.307 31.88 531.603 32.6 535.131 33.824L541.395 35.984C549.459 38.792 555.147 41.888 555.147 50.096C555.147 59.096 547.515 65.864 536.787 65.864C526.779 65.864 519.723 61.832 515.979 53.984L524.547 46.712ZM559.849 49.016V18.128H572.377V49.016C572.377 53.336 574.249 55.856 578.137 55.856C582.025 55.856 583.897 53.336 583.897 49.016V18.128H596.425V49.016C596.425 58.88 590.377 65.864 578.137 65.864C565.897 65.864 559.849 58.88 559.849 49.016ZM602.279 65V18.2H625.967C635.111 18.2 641.087 24.752 641.087 32.528C641.087 40.016 634.751 46.568 626.687 46.568H614.519V65H602.279ZM614.519 37.352H623.663C626.759 37.352 628.847 34.976 628.847 32.384C628.847 29.432 626.903 27.416 623.519 27.416H614.519V37.352ZM644.925 65V18.2H668.613C677.757 18.2 683.733 24.752 683.733 32.528C683.733 40.016 677.397 46.568 669.333 46.568H657.165V65H644.925ZM657.165 37.352H666.309C669.405 37.352 671.493 34.976 671.493 32.384C671.493 29.432 669.549 27.416 666.165 27.416H657.165V37.352ZM689.875 65V18.2H702.115V54.92H723.427V65H689.875ZM734.033 65V45.848L719.489 18.2H732.089L739.937 34.112L746.921 18.2H760.673L746.273 45.848V65H734.033ZM757.599 65V50.96H771.855V65H757.599ZM778.213 41.6C778.213 27.488 784.837 17.336 798.805 17.336C809.317 17.336 814.573 23.384 816.229 31.16L805.933 37.136C804.997 31.952 803.197 27.344 798.661 27.344C793.189 27.344 790.453 33.536 790.453 41.6C790.453 49.664 793.045 55.856 798.661 55.856C804.205 55.856 805.717 49.232 806.365 43.472L816.949 50.096C815.581 58.592 809.245 65.864 798.589 65.864C784.117 65.864 778.213 55.496 778.213 41.6ZM839.939 65.864C825.971 65.864 819.851 55.136 819.851 41.6C819.851 28.064 825.971 17.336 839.939 17.336C853.907 17.336 860.027 28.064 860.027 41.6C860.027 55.136 853.907 65.864 839.939 65.864ZM839.939 55.856C845.267 55.856 847.787 50.096 847.787 41.6C847.787 33.104 845.267 27.344 839.939 27.344C834.611 27.344 832.091 33.104 832.091 41.6C832.091 50.096 834.611 55.856 839.939 55.856ZM863.361 65V18.2H876.105L882.585 33.176L889.065 18.2H901.809V65H891.081V35.48L883.161 51.824H882.009L874.089 35.48V65H863.361Z" fill="#000000"/>
</svg>
